<svg version="1.1" xmlns="http://www.w3.org/2000/svg" xmlns:xlink="http://www.w3.org/1999/xlink" width="522" height="522" viewBox="-5,-5,522,522"><g transform="translate(16,76)"><g data-paper-data="{&quot;isPaintingLayer&quot;:true}" fill-rule="nonzero" stroke-linecap="butt" stroke-linejoin="miter" stroke-miterlimit="10" stroke-dasharray="" stroke-dashoffset="0" style="mix-blend-mode: normal"><path d="M-16,180c0,-141.38489 114.61511,-256 256,-256c141.3849,0 256,114.61511 256,256c0,141.3849 -114.6151,256 -256,256c-141.38489,0 -256,-114.6151 -256,-256zM176,284c0,13.3 10.7,24 24,24h80c13.3,0 24,-10.7 24,-24c0,-13.3 -10.7,-24 -24,-24h-8v-88c0,-13.3 -10.7,-24 -24,-24h-48c-13.3,0 -24,10.7 -24,24c0,13.3 10.7,24 24,24h24v64h-24c-13.3,0 -24,10.7 -24,24zM208,84c0,17.67311 14.32689,32 32,32c17.67311,0 32,-14.32689 32,-32c0,-17.67311 -14.32689,-32 -32,-32c-17.67311,0 -32,14.32689 -32,32z" fill="#ffffff" stroke="#000000" stroke-width="10"/><path d="M240,51.95c17.67311,0 32.05,14.37689 32.05,32.05c0,17.67311 -14.37689,32.05 -32.05,32.05c-17.67311,0 -32.05,-14.37689 -32.05,-32.05c0,-17.67311 14.37689,-32.05 32.05,-32.05z" data-paper-data="{&quot;noHover&quot;:false,&quot;origItem&quot;:[&quot;Path&quot;,{&quot;applyMatrix&quot;:true,&quot;selected&quot;:true,&quot;segments&quot;:[[[208,84],[0,-17.67311],[0,17.67311]],[[240,116],[-17.67311,0],[17.67311,0]],[[272,84],[0,17.67311],[0,-17.67311]],[[240,52],[17.67311,0],[-17.67311,0]]],&quot;closed&quot;:true,&quot;fillColor&quot;:[0,0,0,1]}]}" fill="#000000" stroke="none" stroke-width="0.5"/><path d="M200.03904,259.96877l23.9386,0.07596v-64.08944l-23.9386,0.07596c-13.3,0 -24.07667,-10.76416 -24.07667,-24.06416c0,-13.3 10.71527,-24.0118 24.01527,-24.0118l48.02734,-0.00503c13.3,0 24.01983,10.70634 24.01983,24.00634l0.01055,88.07877l7.9256,-0.06659c13.3,0 24.07667,10.76416 24.07667,24.06416c0,13.3 -10.71527,24.0118 -24.01527,24.0118h-80.04472c-13.3,0 -24.01527,-10.7118 -24.01527,-24.0118c0,-13.3 10.77667,-24.06416 24.07667,-24.06416z" data-paper-data="{&quot;noHover&quot;:false,&quot;origItem&quot;:[&quot;Path&quot;,{&quot;applyMatrix&quot;:true,&quot;selected&quot;:true,&quot;segments&quot;:[[[176,284],[0,-13.3],[0,13.3]],[[200,308],[-13.3,0],[0,0]],[[280,308],[0,0],[13.3,0]],[[304,284],[0,13.3],[0,-13.3]],[[280,260],[13.3,0],[0,0]],[272,260],[[272,172],[0,0],[0,-13.3]],[[248,148],[13.3,0],[0,0]],[[200,148],[0,0],[-13.3,0]],[[176,172],[0,-13.3],[0,13.3]],[[200,196],[-13.3,0],[0,0]],[224,196],[224,260],[[200,260],[0,0],[-13.3,0]]],&quot;closed&quot;:true,&quot;fillColor&quot;:[0,0,0,1]}]}" fill="#000000" stroke="none" stroke-width="0.5"/></g></g></svg>